<svg width="100" height="100" viewBox="0 0 100 100" xmlns="http://www.w3.org/2000/svg">
  <!-- Outer volleyball circle -->
  <circle cx="50" cy="50" r="45" fill="#FF6B35" stroke="#FF4500" stroke-width="2"/>
  
  <!-- Volleyball lines -->
  <path d="M 15 25 Q 50 15 85 25" stroke="white" stroke-width="2" fill="none"/>
  <path d="M 15 75 Q 50 85 85 75" stroke="white" stroke-width="2" fill="none"/>
  <path d="M 25 15 Q 35 50 25 85" stroke="white" stroke-width="2" fill="none"/>
  <path d="M 75 15 Q 65 50 75 85" stroke="white" stroke-width="2" fill="none"/>
  <path d="M 50 5 L 50 95" stroke="white" stroke-width="2"/>
  
  <!-- Cute character face -->
  <circle cx="50" cy="45" r="20" fill="#FFE5B4" stroke="#FFA500" stroke-width="1"/>
  
  <!-- Eyes -->
  <circle cx="44" cy="40" r="3" fill="#333"/>
  <circle cx="56" cy="40" r="3" fill="#333"/>
  <circle cx="45" cy="39" r="1" fill="white"/>
  <circle cx="57" cy="39" r="1" fill="white"/>
  
  <!-- Nose -->
  <circle cx="50" cy="45" r="1" fill="#FF9999"/>
  
  <!-- Mouth -->
  <path d="M 45 50 Q 50 54 55 50" stroke="#333" stroke-width="1.5" fill="none"/>
  
  <!-- Cheeks -->
  <circle cx="38" cy="48" r="2" fill="#FFB6C1" opacity="0.7"/>
  <circle cx="62" cy="48" r="2" fill="#FFB6C1" opacity="0.7"/>
  
  <!-- Hat/cap -->
  <ellipse cx="50" cy="25" rx="25" ry="8" fill="#4169E1"/>
  <ellipse cx="50" cy="25" rx="22" ry="6" fill="#6495ED"/>
  
  <!-- Peak of cap -->
  <ellipse cx="35" cy="30" rx="8" ry="3" fill="#4169E1"/>
</svg> 